<svg width="154" height="84" viewBox="0 0 154 84" fill="none" xmlns="http://www.w3.org/2000/svg">
<path d="M101.968 32.9766C105.001 32.9766 107.557 33.2662 109.636 33.8456C111.749 34.3909 113.453 35.3451 114.748 36.7083C116.043 38.0715 116.98 39.9459 117.56 42.3315C118.139 44.6831 118.429 47.6821 118.429 51.3287C118.429 54.9412 118.139 57.9402 117.56 60.3258C116.98 62.7114 116.043 64.5858 114.748 65.949C113.453 67.3122 111.749 68.2835 109.636 68.8629C107.557 69.4082 105.001 69.6808 101.968 69.6808C98.9691 69.6808 96.4131 69.4082 94.3001 68.8629C92.2212 68.2835 90.5343 67.3122 89.2392 65.949C87.9442 64.5858 87.007 62.7114 86.4276 60.3258C85.8483 57.9402 85.5586 54.9412 85.5586 51.3287C85.5586 47.6821 85.8483 44.6831 86.4276 42.3315C87.007 39.9459 87.9442 38.0715 89.2392 36.7083C90.5343 35.3451 92.2212 34.3909 94.3001 33.8456C96.4131 33.2662 98.9691 32.9766 101.968 32.9766ZM101.968 41.2069C100.707 41.2069 99.7359 41.4795 99.0543 42.0248C98.3727 42.5701 97.8956 43.5755 97.6229 45.0409C97.3503 46.5064 97.214 48.6023 97.214 51.3287C97.214 54.0551 97.3503 56.151 97.6229 57.6165C97.8956 59.0819 98.3727 60.0873 99.0543 60.6325C99.7359 61.1778 100.707 61.4505 101.968 61.4505C103.229 61.4505 104.2 61.1778 104.882 60.6325C105.564 60.0873 106.041 59.0819 106.313 57.6165C106.586 56.151 106.722 54.0551 106.722 51.3287C106.722 48.6023 106.586 46.5064 106.313 45.0409C106.041 43.5755 105.564 42.5701 104.882 42.0248C104.2 41.4795 103.229 41.2069 101.968 41.2069Z" fill="currentColor"/>
<path d="M137.14 32.9766C140.174 32.9766 142.73 33.2662 144.808 33.8456C146.921 34.3909 148.625 35.3451 149.92 36.7083C151.215 38.0715 152.153 39.9459 152.732 42.3315C153.311 44.6831 153.601 47.6821 153.601 51.3287C153.601 54.9412 153.311 57.9402 152.732 60.3258C152.153 62.7114 151.215 64.5858 149.92 65.949C148.625 67.3122 146.921 68.2835 144.808 68.8629C142.73 69.4082 140.174 69.6808 137.14 69.6808C134.141 69.6808 131.585 69.4082 129.472 68.8629C127.393 68.2835 125.707 67.3122 124.411 65.949C123.116 64.5858 122.179 62.7114 121.6 60.3258C121.021 57.9402 120.731 54.9412 120.731 51.3287C120.731 47.6821 121.021 44.6831 121.6 42.3315C122.179 39.9459 123.116 38.0715 124.411 36.7083C125.707 35.3451 127.393 34.3909 129.472 33.8456C131.585 33.2662 134.141 32.9766 137.14 32.9766ZM137.14 41.2069C135.879 41.2069 134.908 41.4795 134.227 42.0248C133.545 42.5701 133.068 43.5755 132.795 45.0409C132.523 46.5064 132.386 48.6023 132.386 51.3287C132.386 54.0551 132.523 56.151 132.795 57.6165C133.068 59.0819 133.545 60.0873 134.227 60.6325C134.908 61.1778 135.879 61.4505 137.14 61.4505C138.401 61.4505 139.373 61.1778 140.054 60.6325C140.736 60.0873 141.213 59.0819 141.486 57.6165C141.758 56.151 141.895 54.0551 141.895 51.3287C141.895 48.6023 141.758 46.5064 141.486 45.0409C141.213 43.5755 140.736 42.5701 140.054 42.0248C139.373 41.4795 138.401 41.2069 137.14 41.2069Z" fill="currentColor"/>
<path d="M84.0056 9.32495L76.5796 63.8971C76.3493 65.3938 75.6298 66.6027 74.4209 67.5238C73.212 68.4448 71.8016 68.9053 70.1898 68.9053H54.3017C52.6899 68.9053 51.2507 68.4448 49.9843 67.5238C48.7754 66.6027 48.0846 65.3938 47.9119 63.8971L43.8536 30.9984C43.6809 29.5593 43.5369 28.1201 43.4218 26.681C43.3642 25.1843 43.2779 23.7164 43.1628 22.2772H41.6948C41.6373 23.7164 41.5509 25.1843 41.4358 26.681C41.3207 28.1777 41.1768 29.6456 41.0041 31.0847L37.032 63.8971C36.8593 65.3938 36.1398 66.6027 34.8733 67.5238C33.6644 68.4448 32.2541 68.9053 30.6422 68.9053H14.6678C13.056 68.9053 11.6456 68.4448 10.4367 67.5238C9.22785 66.6027 8.50828 65.3938 8.27801 63.8971L0.852051 9.32495H19.3306L22.3528 45.8503C22.4679 47.2895 22.5543 48.8437 22.6118 50.5131C22.6694 52.125 22.6982 53.8807 22.6982 55.7804H24.0798C24.31 54.2837 24.5403 52.6431 24.7706 50.8585C25.0584 49.0164 25.2886 47.3182 25.4613 45.764L29.4334 14.8512C29.6061 13.1818 30.2681 11.8578 31.4194 10.8792C32.6283 9.84304 34.0674 9.32495 35.7368 9.32495H49.1208C50.7902 9.32495 52.2006 9.84304 53.3519 10.8792C54.5032 11.8578 55.194 13.1818 55.4242 14.8512L59.4826 45.9367C59.6553 47.4909 59.8568 49.1316 60.0871 50.8585C60.3173 52.5855 60.5476 54.2261 60.7778 55.7804H62.1594C62.1594 54.1686 62.217 52.4992 62.3321 50.7722C62.4472 49.0452 62.5336 47.4622 62.5912 46.023L65.527 9.32495H84.0056Z" fill="currentColor"/>
<path d="M91.3775 10.39V27.43H147.101V10.39H91.3775ZM91.3775 10.39L88.1825 4H81.7925" stroke="currentColor" stroke-width="8" stroke-linejoin="round"/>
<path d="M15.4049 83.8751H14.3441V79.5756H9.55156V83.8751H8.49072V74.7519H9.55156V78.6395H14.3441V74.7519H15.4049V83.8751Z" fill="currentColor"/>
<path d="M33.4393 76.911C34.0217 76.911 34.5209 77.04 34.9369 77.2979C35.353 77.5558 35.6712 77.9178 35.8917 78.3837C36.1122 78.8455 36.2224 79.3863 36.2224 80.0062V80.6489H31.4986C31.511 81.4518 31.7107 82.0634 32.0976 82.4835C32.4845 82.9037 33.0295 83.1138 33.7326 83.1138C34.1652 83.1138 34.548 83.0743 34.8808 82.9952C35.2136 82.9162 35.5589 82.7997 35.9167 82.6458V83.5569C35.5714 83.7108 35.2281 83.8231 34.887 83.8938C34.55 83.9646 34.1507 83.9999 33.6889 83.9999C33.0316 83.9999 32.4575 83.8668 31.9666 83.6005C31.4798 83.3301 31.1013 82.9349 30.8309 82.4149C30.5604 81.8949 30.4252 81.2584 30.4252 80.5054C30.4252 79.769 30.548 79.1325 30.7934 78.5959C31.043 78.055 31.3925 77.639 31.8418 77.3478C32.2952 77.0566 32.8277 76.911 33.4393 76.911ZM33.4268 77.7597C32.8735 77.7597 32.4325 77.9406 32.1039 78.3026C31.7752 78.6645 31.5797 79.17 31.5173 79.8189H35.1366C35.1325 79.4113 35.068 79.0535 34.9432 78.7456C34.8225 78.4336 34.6374 78.1923 34.3878 78.0218C34.1382 77.847 33.8179 77.7597 33.4268 77.7597Z" fill="currentColor"/>
<path d="M53.5891 76.9235C54.4045 76.9235 55.0098 77.1065 55.405 77.4726C55.8002 77.8387 55.9978 78.4232 55.9978 79.2261V83.8751H55.2427L55.0431 82.8642H54.9931C54.8018 83.1138 54.6021 83.3239 54.3941 83.4945C54.1861 83.6609 53.9448 83.7877 53.6702 83.8751C53.3998 83.9583 53.067 83.9999 52.6718 83.9999C52.2557 83.9999 51.8855 83.9271 51.561 83.7815C51.2407 83.6359 50.9869 83.4154 50.7997 83.12C50.6166 82.8247 50.5251 82.4503 50.5251 81.9968C50.5251 81.3145 50.7955 80.7903 51.3364 80.4243C51.8772 80.0582 52.7009 79.8585 53.8075 79.8252L54.9869 79.7753V79.3572C54.9869 78.7664 54.86 78.3525 54.6062 78.1154C54.3525 77.8782 53.9947 77.7597 53.5329 77.7597C53.1751 77.7597 52.834 77.8117 52.5095 77.9157C52.185 78.0197 51.8772 78.1424 51.586 78.2838L51.2677 77.4976C51.5756 77.3395 51.9292 77.2043 52.3286 77.092C52.7279 76.9796 53.1481 76.9235 53.5891 76.9235ZM54.9744 80.5054L53.9323 80.5491C53.0795 80.5823 52.4783 80.7217 52.1289 80.9672C51.7794 81.2126 51.6047 81.56 51.6047 82.0093C51.6047 82.4003 51.7232 82.6895 51.9604 82.8767C52.1975 83.0639 52.5116 83.1575 52.9027 83.1575C53.51 83.1575 54.0072 82.989 54.3941 82.652C54.781 82.315 54.9744 81.8096 54.9744 81.1356V80.5054Z" fill="currentColor"/>
<path d="M73.6141 83.9999C72.7488 83.9999 72.0623 83.7045 71.5548 83.1138C71.0514 82.5231 70.7997 81.6453 70.7997 80.4804C70.7997 79.3031 71.0577 78.4149 71.5735 77.8158C72.0894 77.2126 72.7758 76.911 73.6328 76.911C73.9947 76.911 74.3109 76.9588 74.5813 77.0545C74.8517 77.1502 75.0847 77.2792 75.2802 77.4414C75.4758 77.5995 75.6401 77.7805 75.7732 77.9843H75.8481C75.8315 77.8553 75.8148 77.6785 75.7982 77.4539C75.7815 77.2292 75.7732 77.0462 75.7732 76.9048V74.1653H76.8091V83.8751H75.9729L75.8169 82.9016H75.7732C75.6442 83.1055 75.4799 83.2906 75.2802 83.457C75.0847 83.6234 74.8497 83.7565 74.5751 83.8564C74.3047 83.9521 73.9843 83.9999 73.6141 83.9999ZM73.7763 83.1388C74.5085 83.1388 75.0265 82.9307 75.3302 82.5147C75.6338 82.0987 75.7857 81.4809 75.7857 80.6614V80.4742C75.7857 79.6047 75.6401 78.937 75.3489 78.4711C75.0618 78.0051 74.5376 77.7721 73.7763 77.7721C73.1398 77.7721 72.6635 78.0176 72.3473 78.5085C72.0311 78.9952 71.8731 79.6609 71.8731 80.5054C71.8731 81.3457 72.0291 81.9947 72.3411 82.4523C72.6572 82.9099 73.1357 83.1388 73.7763 83.1388Z" fill="currentColor"/>
<path d="M93.0962 83.8751H92.0541V74.1653H93.0962V83.8751Z" fill="currentColor"/>
<path d="M110.968 76.911C111.551 76.911 112.05 77.04 112.466 77.2979C112.882 77.5558 113.2 77.9178 113.421 78.3837C113.641 78.8455 113.751 79.3863 113.751 80.0062V80.6489H109.028C109.04 81.4518 109.24 82.0634 109.627 82.4835C110.014 82.9037 110.559 83.1138 111.262 83.1138C111.694 83.1138 112.077 83.0743 112.41 82.9952C112.743 82.9162 113.088 82.7997 113.446 82.6458V83.5569C113.1 83.7108 112.757 83.8231 112.416 83.8938C112.079 83.9646 111.68 83.9999 111.218 83.9999C110.561 83.9999 109.987 83.8668 109.496 83.6005C109.009 83.3301 108.63 82.9349 108.36 82.4149C108.089 81.8949 107.954 81.2584 107.954 80.5054C107.954 79.769 108.077 79.1325 108.322 78.5959C108.572 78.055 108.922 77.639 109.371 77.3478C109.824 77.0566 110.357 76.911 110.968 76.911ZM110.956 77.7597C110.403 77.7597 109.962 77.9406 109.633 78.3026C109.304 78.6645 109.109 79.17 109.046 79.8189H112.666C112.661 79.4113 112.597 79.0535 112.472 78.7456C112.352 78.4336 112.166 78.1923 111.917 78.0218C111.667 77.847 111.347 77.7597 110.956 77.7597Z" fill="currentColor"/>
<path d="M132.984 82.003C132.984 82.4399 132.874 82.808 132.653 83.1076C132.437 83.4029 132.125 83.6255 131.717 83.7753C131.314 83.925 130.831 83.9999 130.269 83.9999C129.791 83.9999 129.377 83.9625 129.028 83.8876C128.678 83.8127 128.372 83.7066 128.11 83.5693V82.6146C128.389 82.7519 128.722 82.8767 129.109 82.989C129.496 83.1013 129.891 83.1575 130.294 83.1575C130.885 83.1575 131.314 83.0618 131.58 82.8704C131.846 82.6791 131.979 82.419 131.979 82.0904C131.979 81.9032 131.925 81.7389 131.817 81.5974C131.713 81.4518 131.536 81.3124 131.287 81.1793C131.037 81.042 130.692 80.8923 130.251 80.73C129.814 80.5636 129.435 80.3993 129.115 80.237C128.799 80.0706 128.553 79.8689 128.379 79.6317C128.208 79.3946 128.123 79.0868 128.123 78.7082C128.123 78.1299 128.356 77.6869 128.822 77.379C129.292 77.067 129.908 76.911 130.669 76.911C131.081 76.911 131.465 76.9526 131.823 77.0358C132.185 77.1148 132.522 77.223 132.834 77.3603L132.485 78.1902C132.202 78.0696 131.9 77.9677 131.58 77.8845C131.26 77.8013 130.933 77.7597 130.6 77.7597C130.122 77.7597 129.754 77.8387 129.496 77.9968C129.242 78.1549 129.115 78.3712 129.115 78.6458C129.115 78.8579 129.173 79.0327 129.29 79.17C129.41 79.3072 129.602 79.4362 129.864 79.5569C130.126 79.6775 130.471 79.8189 130.9 79.9812C131.328 80.1393 131.698 80.3036 132.01 80.4742C132.322 80.6406 132.562 80.8444 132.728 81.0857C132.899 81.3228 132.984 81.6286 132.984 82.003Z" fill="currentColor"/>
<path d="M152.123 82.003C152.123 82.4399 152.013 82.808 151.792 83.1076C151.576 83.4029 151.264 83.6255 150.856 83.7753C150.453 83.925 149.97 83.9999 149.408 83.9999C148.93 83.9999 148.516 83.9625 148.167 83.8876C147.817 83.8127 147.511 83.7066 147.249 83.5693V82.6146C147.528 82.7519 147.861 82.8767 148.248 82.989C148.635 83.1013 149.03 83.1575 149.433 83.1575C150.024 83.1575 150.453 83.0618 150.719 82.8704C150.985 82.6791 151.118 82.419 151.118 82.0904C151.118 81.9032 151.064 81.7389 150.956 81.5974C150.852 81.4518 150.675 81.3124 150.425 81.1793C150.176 81.042 149.831 80.8923 149.39 80.73C148.953 80.5636 148.574 80.3993 148.254 80.237C147.938 80.0706 147.692 79.8689 147.518 79.6317C147.347 79.3946 147.262 79.0868 147.262 78.7082C147.262 78.1299 147.495 77.6869 147.961 77.379C148.431 77.067 149.046 76.911 149.808 76.911C150.22 76.911 150.604 76.9526 150.962 77.0358C151.324 77.1148 151.661 77.223 151.973 77.3603L151.624 78.1902C151.341 78.0696 151.039 77.9677 150.719 77.8845C150.398 77.8013 150.072 77.7597 149.739 77.7597C149.261 77.7597 148.892 77.8387 148.635 77.9968C148.381 78.1549 148.254 78.3712 148.254 78.6458C148.254 78.8579 148.312 79.0327 148.429 79.17C148.549 79.3072 148.741 79.4362 149.003 79.5569C149.265 79.6775 149.61 79.8189 150.039 79.9812C150.467 80.1393 150.837 80.3036 151.149 80.4742C151.461 80.6406 151.701 80.8444 151.867 81.0857C152.038 81.3228 152.123 81.6286 152.123 82.003Z" fill="currentColor"/>
</svg>
